<?xml version="1.0" encoding="utf-8"?>
<!-- Generator: Adobe Illustrator 16.0.0, SVG Export Plug-In . SVG Version: 6.00 Build 0)  -->
<!DOCTYPE svg PUBLIC "-//W3C//DTD SVG 1.1//EN" "http://www.w3.org/Graphics/SVG/1.1/DTD/svg11.dtd">
<svg version="1.1" id="Layer_1" xmlns="http://www.w3.org/2000/svg" xmlns:xlink="http://www.w3.org/1999/xlink" x="0px" y="0px"
	 width="63px" height="113px" viewBox="0 0 63 113" style="enable-background:new 0 0 63 113;" xml:space="preserve">
<path style="fill:#023649;" d="M63,78c0,11.1-2.5,19.9-8,26c-5.5,6.1-12.9,9-23,9c-10.5,0-18.6-3.6-24-10c-5.4-6.4-8-14.4-8-25V35
	C0,24.3,2.6,15.4,8,9c5.4-6.4,13.5-9,24-9c10.1,0,17.9,2.9,23.4,9.1C60.8,15.2,63,23.8,63,35V78z M19,81c0,5.4,0.5,8.5,3,11
	c2.5,2.5,6.3,4,10,4c3.6,0,7.5-1.4,10-4c2.5-2.6,3-5.8,3-11V32c0-5.2-1.5-9.4-4-12c-2.5-2.6-5.4-4-9-4c-3.7,0-7.5,2.5-10,5
	c-2.5,2.5-3,5.7-3,11V81z"/>
</svg>
