<?xml version="1.0" encoding="utf-8"?>
<!-- Generator: Adobe Illustrator 16.0.0, SVG Export Plug-In . SVG Version: 6.00 Build 0)  -->
<!DOCTYPE svg PUBLIC "-//W3C//DTD SVG 1.1//EN" "http://www.w3.org/Graphics/SVG/1.1/DTD/svg11.dtd">
<svg version="1.1" id="Layer_1" xmlns="http://www.w3.org/2000/svg" xmlns:xlink="http://www.w3.org/1999/xlink" x="0px" y="0px"
	 width="63px" height="113px" viewBox="0 0 63 113" style="enable-background:new 0 0 63 113;" xml:space="preserve">
<path style="fill:#023649;" d="M63,79c0,10.2-2.6,18.9-8,25c-5.4,6.1-13,9-23,9c-10.2,0-17.9-2-23-7c-5.1-5-8.2-12.9-9-23h18
	c0.5,3.9,2.7,7.1,5,9c2.3,1.9,5.1,3,10,3c3.4,0,6.9-1.9,9-4c2.1-2.1,3-4.5,3-8c0-3-1.4-5.8-3-8c-1.6-2.2-4.6-4.9-9-7
	c-3.7-1.8-8.2-3.9-12-6c-3.9-2.1-6.4-4-10-7c-3.3-2.9-6.4-6.4-8-10c-1.6-3.6-2-8.3-2-14c0-9.6,2.5-17.5,8-23c5.5-5.5,12.5-8,22-8
	c10.1,0,17.3,1.9,22,7c4.7,5.1,7.8,12.8,8,22H43c0.2-3.8-0.7-6.9-3-9c-2.3-2.1-5.3-3-9-3c-4.3,0-7.9,1.1-10,3c-2.1,1.9-3,4.5-3,8
	c0,2.8,0.8,4.1,2,6c1.2,1.9,2.8,4.1,6,6c2.2,1.4,4.6,2.9,7,4s6.7,2.8,9,4c2.3,1.2,4.7,2.6,7,4c2.3,1.4,3.1,2.1,5,4
	c3.2,3.1,5.7,6.4,7,10C62.3,69.6,63,74.1,63,79z"/>
</svg>
